<mxfile host="app.diagrams.net" modified="2023-10-01T08:38:05.358Z" agent="Mozilla/5.0 (Windows NT 10.0; Win64; x64) AppleWebKit/537.36 (KHTML, like Gecko) Chrome/117.0.0.0 Safari/537.36" etag="-ZTcPVKlwO8j_nINTtmo" version="21.8.2" type="device">
  <diagram id="C5RBs43oDa-KdzZeNtuy" name="Page-1">
    <mxGraphModel dx="881" dy="446" grid="1" gridSize="10" guides="1" tooltips="1" connect="1" arrows="1" fold="1" page="1" pageScale="1" pageWidth="827" pageHeight="1169" math="0" shadow="0">
      <root>
        <mxCell id="WIyWlLk6GJQsqaUBKTNV-0" />
        <mxCell id="WIyWlLk6GJQsqaUBKTNV-1" parent="WIyWlLk6GJQsqaUBKTNV-0" />
        <mxCell id="HAlKXmDzrB93N0-EfDcC-2" value="frame" style="shape=umlFrame;whiteSpace=wrap;html=1;" parent="WIyWlLk6GJQsqaUBKTNV-1" vertex="1">
          <mxGeometry x="200" y="120" width="440" height="460" as="geometry" />
        </mxCell>
        <mxCell id="Xu0v2ZnW0rIR01lpbdp4-16" style="edgeStyle=orthogonalEdgeStyle;rounded=0;orthogonalLoop=1;jettySize=auto;html=1;exitX=0.5;exitY=0.5;exitDx=0;exitDy=0;exitPerimeter=0;" edge="1" parent="WIyWlLk6GJQsqaUBKTNV-1" source="HAlKXmDzrB93N0-EfDcC-0" target="Xu0v2ZnW0rIR01lpbdp4-2">
          <mxGeometry relative="1" as="geometry" />
        </mxCell>
        <mxCell id="HAlKXmDzrB93N0-EfDcC-0" value="Підтримка&lt;br&gt;" style="shape=umlActor;verticalLabelPosition=bottom;verticalAlign=top;html=1;" parent="WIyWlLk6GJQsqaUBKTNV-1" vertex="1">
          <mxGeometry x="680" y="420" width="30" height="60" as="geometry" />
        </mxCell>
        <mxCell id="HAlKXmDzrB93N0-EfDcC-1" value="Переглядати поради&lt;br&gt;щодо безепечного&lt;br&gt;поїдання їжі" style="ellipse;whiteSpace=wrap;html=1;" parent="WIyWlLk6GJQsqaUBKTNV-1" vertex="1">
          <mxGeometry x="310" y="170" width="140" height="70" as="geometry" />
        </mxCell>
        <mxCell id="HAlKXmDzrB93N0-EfDcC-3" value="Шукати інформацію&lt;br&gt;про безпечні стосунки" style="ellipse;whiteSpace=wrap;html=1;" parent="WIyWlLk6GJQsqaUBKTNV-1" vertex="1">
          <mxGeometry x="310" y="250" width="140" height="70" as="geometry" />
        </mxCell>
        <mxCell id="Xu0v2ZnW0rIR01lpbdp4-8" style="edgeStyle=orthogonalEdgeStyle;rounded=0;orthogonalLoop=1;jettySize=auto;html=1;exitX=0.5;exitY=0.5;exitDx=0;exitDy=0;exitPerimeter=0;entryX=0;entryY=0.5;entryDx=0;entryDy=0;" edge="1" parent="WIyWlLk6GJQsqaUBKTNV-1" source="HAlKXmDzrB93N0-EfDcC-4" target="HAlKXmDzrB93N0-EfDcC-1">
          <mxGeometry relative="1" as="geometry">
            <Array as="points">
              <mxPoint x="115" y="205" />
            </Array>
          </mxGeometry>
        </mxCell>
        <mxCell id="HAlKXmDzrB93N0-EfDcC-4" value="Споживач" style="shape=umlActor;verticalLabelPosition=bottom;verticalAlign=top;html=1;" parent="WIyWlLk6GJQsqaUBKTNV-1" vertex="1">
          <mxGeometry x="100" y="185" width="30" height="60" as="geometry" />
        </mxCell>
        <mxCell id="Xu0v2ZnW0rIR01lpbdp4-12" style="edgeStyle=orthogonalEdgeStyle;rounded=0;orthogonalLoop=1;jettySize=auto;html=1;exitX=0.5;exitY=0.5;exitDx=0;exitDy=0;exitPerimeter=0;" edge="1" parent="WIyWlLk6GJQsqaUBKTNV-1" source="HAlKXmDzrB93N0-EfDcC-6" target="Xu0v2ZnW0rIR01lpbdp4-5">
          <mxGeometry relative="1" as="geometry" />
        </mxCell>
        <mxCell id="HAlKXmDzrB93N0-EfDcC-6" value="Адміністратор" style="shape=umlActor;verticalLabelPosition=bottom;verticalAlign=top;html=1;" parent="WIyWlLk6GJQsqaUBKTNV-1" vertex="1">
          <mxGeometry x="100" y="335" width="30" height="60" as="geometry" />
        </mxCell>
        <mxCell id="HAlKXmDzrB93N0-EfDcC-8" value="Керування системою&lt;br&gt;" style="ellipse;whiteSpace=wrap;html=1;" parent="WIyWlLk6GJQsqaUBKTNV-1" vertex="1">
          <mxGeometry x="490" y="330" width="140" height="70" as="geometry" />
        </mxCell>
        <mxCell id="Xu0v2ZnW0rIR01lpbdp4-19" style="edgeStyle=orthogonalEdgeStyle;rounded=0;orthogonalLoop=1;jettySize=auto;html=1;exitX=0.5;exitY=0.5;exitDx=0;exitDy=0;exitPerimeter=0;" edge="1" parent="WIyWlLk6GJQsqaUBKTNV-1" source="Xu0v2ZnW0rIR01lpbdp4-0" target="Xu0v2ZnW0rIR01lpbdp4-17">
          <mxGeometry relative="1" as="geometry" />
        </mxCell>
        <mxCell id="Xu0v2ZnW0rIR01lpbdp4-0" value="Програмний продукт&lt;br&gt;" style="shape=umlActor;verticalLabelPosition=bottom;verticalAlign=top;html=1;" vertex="1" parent="WIyWlLk6GJQsqaUBKTNV-1">
          <mxGeometry x="680" y="300" width="30" height="60" as="geometry" />
        </mxCell>
        <mxCell id="Xu0v2ZnW0rIR01lpbdp4-1" value="Допомога користувачам" style="ellipse;whiteSpace=wrap;html=1;" vertex="1" parent="WIyWlLk6GJQsqaUBKTNV-1">
          <mxGeometry x="310" y="510" width="140" height="70" as="geometry" />
        </mxCell>
        <mxCell id="Xu0v2ZnW0rIR01lpbdp4-2" value="Вирішення проблем користувачів" style="ellipse;whiteSpace=wrap;html=1;" vertex="1" parent="WIyWlLk6GJQsqaUBKTNV-1">
          <mxGeometry x="310" y="420" width="140" height="70" as="geometry" />
        </mxCell>
        <mxCell id="Xu0v2ZnW0rIR01lpbdp4-4" value="include&lt;br&gt;" style="endArrow=open;endSize=12;dashed=1;html=1;rounded=0;" edge="1" parent="WIyWlLk6GJQsqaUBKTNV-1">
          <mxGeometry width="160" relative="1" as="geometry">
            <mxPoint x="380" y="510" as="sourcePoint" />
            <mxPoint x="380" y="490" as="targetPoint" />
          </mxGeometry>
        </mxCell>
        <mxCell id="Xu0v2ZnW0rIR01lpbdp4-5" value="Виконує управлінські функції" style="ellipse;whiteSpace=wrap;html=1;" vertex="1" parent="WIyWlLk6GJQsqaUBKTNV-1">
          <mxGeometry x="310" y="330" width="140" height="70" as="geometry" />
        </mxCell>
        <mxCell id="Xu0v2ZnW0rIR01lpbdp4-6" value="include&lt;br&gt;" style="endArrow=open;endSize=12;dashed=1;html=1;rounded=0;entryX=0;entryY=0.5;entryDx=0;entryDy=0;exitX=1;exitY=0.5;exitDx=0;exitDy=0;" edge="1" parent="WIyWlLk6GJQsqaUBKTNV-1" source="Xu0v2ZnW0rIR01lpbdp4-5" target="HAlKXmDzrB93N0-EfDcC-8">
          <mxGeometry width="160" relative="1" as="geometry">
            <mxPoint x="390" y="490" as="sourcePoint" />
            <mxPoint x="390" y="510" as="targetPoint" />
          </mxGeometry>
        </mxCell>
        <mxCell id="Xu0v2ZnW0rIR01lpbdp4-9" style="edgeStyle=orthogonalEdgeStyle;rounded=0;orthogonalLoop=1;jettySize=auto;html=1;exitX=0.5;exitY=0.5;exitDx=0;exitDy=0;exitPerimeter=0;entryX=-0.001;entryY=0.326;entryDx=0;entryDy=0;entryPerimeter=0;" edge="1" parent="WIyWlLk6GJQsqaUBKTNV-1" source="HAlKXmDzrB93N0-EfDcC-4" target="HAlKXmDzrB93N0-EfDcC-3">
          <mxGeometry relative="1" as="geometry">
            <Array as="points">
              <mxPoint x="115" y="220" />
              <mxPoint x="260" y="220" />
              <mxPoint x="260" y="273" />
            </Array>
          </mxGeometry>
        </mxCell>
        <mxCell id="Xu0v2ZnW0rIR01lpbdp4-17" value="Обробка запистів користувача" style="ellipse;whiteSpace=wrap;html=1;" vertex="1" parent="WIyWlLk6GJQsqaUBKTNV-1">
          <mxGeometry x="490" y="250" width="140" height="70" as="geometry" />
        </mxCell>
        <mxCell id="Xu0v2ZnW0rIR01lpbdp4-18" value="extend&lt;br&gt;" style="endArrow=open;endSize=12;dashed=1;html=1;rounded=0;entryX=1;entryY=0;entryDx=0;entryDy=0;exitX=0;exitY=0.5;exitDx=0;exitDy=0;" edge="1" parent="WIyWlLk6GJQsqaUBKTNV-1" source="Xu0v2ZnW0rIR01lpbdp4-17" target="Xu0v2ZnW0rIR01lpbdp4-5">
          <mxGeometry width="160" relative="1" as="geometry">
            <mxPoint x="460" y="375" as="sourcePoint" />
            <mxPoint x="500" y="375" as="targetPoint" />
          </mxGeometry>
        </mxCell>
      </root>
    </mxGraphModel>
  </diagram>
</mxfile>
